<svg xmlns="http://www.w3.org/2000/svg" version="1.1" xmlns:xlink="http://www.w3.org/1999/xlink" xmlns:svgjs="http://svgjs.com/svgjs" id="Pattern1766SvgRootPreview" width="100%" height="100%"><defs><pattern x="0" y="0" width="1" height="1" patternUnits="userSpaceOnUse" id="Pattern1766Layer1"><g id="PatternRootContent1"><g id="Pattern1766Layer1background"><rect width="1" height="1" id="Pattern1766Background1" class="color_1 fill_color_1" fill="#586e73"></rect></g></g></pattern><pattern x="0" y="0" width="120" height="180" patternUnits="userSpaceOnUse" id="Pattern1766Layer2" patternTransform="matrix(-0.42426406871192845,0.4242640687119285,-0.4242640687119285,-0.42426406871192845,0,0)"><g id="PatternRootContent2"><g id="Pattern1766Layer2Element3"><use xlink:href="#Pattern1766Element3" x="64.45386505126953" y="-127.82266235351562" transform="translate(120, -45) scale(1) translate(-120, 45) rotate(90, 120, -45)"></use><use xlink:href="#Pattern1766Element3" x="-55.54613494873047" y="-127.82266235351562" transform="translate(0, -45) scale(1) translate(0, 45) rotate(90, 0, -45)"></use><use xlink:href="#Pattern1766Element3" x="4.453865051269531" y="-37.822662353515625" transform="translate(60, 45) scale(1) translate(-60, -45) rotate(90, 60, 45)"></use><use xlink:href="#Pattern1766Element3" x="-115.54613494873047" y="-37.822662353515625" transform="translate(-60, 45) scale(1) translate(60, -45) rotate(90, -60, 45)"></use><use xlink:href="#Pattern1766Element3" x="124.45386505126953" y="-37.822662353515625" transform="translate(180, 45) scale(1) translate(-180, -45) rotate(90, 180, 45)"></use><use xlink:href="#Pattern1766Element3" x="64.45386505126953" y="52.177337646484375" transform="translate(120, 135) scale(1) translate(-120, -135) rotate(90, 120, 135)"></use><use xlink:href="#Pattern1766Element3" x="-55.54613494873047" y="52.177337646484375" transform="translate(0, 135) scale(1) translate(0, -135) rotate(90, 0, 135)"></use><use xlink:href="#Pattern1766Element3" x="4.453865051269531" y="142.17733764648438" transform="translate(60, 225) scale(1) translate(-60, -225) rotate(90, 60, 225)"></use><use xlink:href="#Pattern1766Element3" x="4.453865051269531" y="142.17733764648438" transform="translate(60, 225) scale(1) translate(-60, -225) rotate(90, 60, 225)"></use></g></g></pattern><symbol id="Pattern1766Element3"><g class="color_4 fill_color_4" fill="#f2ede4"><g><path d="M58.749,52.038108825683594c0.044,0.057,0.085,0.115,0.136,0.166c0.054,0.054,0.116,0.098,0.176,0.144c0.057,0.045,0.112,0.091,0.176,0.127c0.064,0.036,0.134,0.062,0.203,0.09c0.056,0.023,0.106,0.057,0.165,0.074c0.017,0.004,0.035,0.003,0.054,0.007c0.015,0.004,0.028,0.013,0.044,0.017L77.94,56.78703308105469c0.909,0.206,1.812,-0.364,2.018,-1.273c0.206,-0.909,-0.364,-1.812,-1.273,-2.017L78.685,53.49757385253906l-15.253,-3.45l2.032,-2.034L83.319,30.158809661865234c0.659,-0.658,0.659,-1.727,0,-2.386c-0.284,-0.284,-0.644,-0.438,-1.015,-0.477c-0.489,-0.052,-0.998,0.101,-1.373,0.477l-18.935,18.936l-0.952,0.952L57.595,32.407405853271484c-0.206,-0.91,-1.109,-1.479,-2.019,-1.273c-0.322,0.074,-0.602,0.234,-0.82,0.452c-0.395,0.395,-0.586,0.981,-0.453,1.568l0.001,-0.001l4.125,18.238c0.003,0.016,0.012,0.028,0.017,0.044c0.004,0.018,0.001,0.035,0.007,0.054c0.018,0.06,0.051,0.112,0.075,0.17c0.028,0.066,0.052,0.134,0.087,0.197C58.653,51.92,58.702,51.977,58.749,52.038108825683594Z"></path><path d="M59.054,58.74855041503906c-0.057,0.045,-0.115,0.086,-0.166,0.136c-0.054,0.054,-0.098,0.116,-0.144,0.176c-0.045,0.057,-0.091,0.112,-0.127,0.176c-0.036,0.064,-0.062,0.134,-0.09,0.203c-0.023,0.056,-0.057,0.106,-0.074,0.165c-0.004,0.017,-0.003,0.035,-0.007,0.054c-0.004,0.015,-0.013,0.028,-0.017,0.044L54.305,77.9394302368164c-0.206,0.909,0.364,1.812,1.273,2.018c0.909,0.206,1.812,-0.364,2.017,-1.273L57.595,78.68472290039062l3.45,-15.253l2.034,2.032L80.933,83.31909942626953c0.659,0.658,1.727,0.659,2.386,0c0.284,-0.284,0.438,-0.644,0.477,-1.015c0.052,-0.489,-0.101,-0.998,-0.477,-1.373l-18.936,-18.935l-0.952,-0.952L78.685,57.59455490112305c0.91,-0.206,1.479,-1.109,1.273,-2.019c-0.074,-0.322,-0.234,-0.602,-0.452,-0.82c-0.395,-0.395,-0.981,-0.586,-1.568,-0.453l0.001,0.001l-18.238,4.125c-0.016,0.003,-0.028,0.012,-0.044,0.017c-0.018,0.004,-0.035,0.001,-0.054,0.007c-0.06,0.018,-0.112,0.051,-0.17,0.075c-0.066,0.028,-0.134,0.052,-0.197,0.087C59.172,58.653,59.115,58.702,59.054,58.74855041503906Z"></path><path d="M52.344,59.05368423461914c-0.044,-0.057,-0.086,-0.115,-0.136,-0.166c-0.054,-0.054,-0.116,-0.098,-0.176,-0.144c-0.057,-0.045,-0.112,-0.091,-0.176,-0.127c-0.064,-0.036,-0.134,-0.062,-0.203,-0.09c-0.056,-0.023,-0.106,-0.057,-0.165,-0.074c-0.017,-0.004,-0.035,-0.003,-0.054,-0.007c-0.015,-0.004,-0.028,-0.013,-0.044,-0.017L33.153,54.30475616455078c-0.909,-0.206,-1.812,0.364,-2.018,1.273c-0.206,0.909,0.364,1.812,1.273,2.017L32.408,57.594215393066406l15.253,3.45l-2.032,2.034L27.774,80.93299102783203c-0.659,0.658,-0.66,1.727,0,2.386c0.284,0.284,0.644,0.438,1.015,0.477c0.489,0.052,0.998,-0.101,1.373,-0.477l18.935,-18.936l0.952,-0.952L53.498,78.68438720703125c0.206,0.91,1.109,1.479,2.019,1.273c0.322,-0.074,0.602,-0.234,0.82,-0.452c0.395,-0.395,0.586,-0.981,0.453,-1.568l-0.001,0.001l-4.125,-18.238c-0.003,-0.016,-0.012,-0.028,-0.017,-0.044c-0.004,-0.018,-0.001,-0.035,-0.007,-0.054c-0.018,-0.06,-0.051,-0.112,-0.075,-0.17c-0.028,-0.066,-0.052,-0.134,-0.087,-0.197C52.439,59.172,52.39,59.115,52.344,59.05368423461914Z"></path><path d="M52.039,52.343238830566406c0.057,-0.045,0.115,-0.086,0.166,-0.136c0.054,-0.054,0.098,-0.116,0.144,-0.176c0.045,-0.057,0.091,-0.112,0.127,-0.176c0.036,-0.064,0.062,-0.134,0.09,-0.203c0.023,-0.056,0.057,-0.106,0.074,-0.165c0.004,-0.017,0.003,-0.035,0.007,-0.054c0.004,-0.015,0.013,-0.028,0.017,-0.044L56.788,33.15235900878906c0.206,-0.909,-0.365,-1.812,-1.273,-2.018c-0.909,-0.206,-1.812,0.364,-2.017,1.273L53.498,32.407066345214844l-3.45,15.253l-2.034,-2.032L30.159,27.77269172668457c-0.658,-0.658,-1.726,-0.659,-2.385,0c-0.284,0.284,-0.438,0.644,-0.477,1.015c-0.052,0.489,0.101,0.998,0.477,1.373l18.936,18.935l0.952,0.952L32.408,53.49723434448242c-0.91,0.206,-1.479,1.109,-1.274,2.019c0.074,0.322,0.234,0.602,0.452,0.82c0.395,0.395,0.981,0.586,1.568,0.453l-0.001,-0.001l18.238,-4.125c0.016,-0.003,0.028,-0.012,0.044,-0.017c0.018,-0.004,0.035,-0.001,0.054,-0.007c0.06,-0.018,0.112,-0.051,0.17,-0.075c0.066,-0.028,0.134,-0.052,0.197,-0.087C51.92,52.439,51.977,52.39,52.039,52.343238830566406Z"></path></g><g><path d="M52.344,113.60720825195312c-0.045,-0.057,-0.086,-0.115,-0.137,-0.166c-0.054,-0.054,-0.116,-0.098,-0.176,-0.144c-0.057,-0.045,-0.112,-0.091,-0.176,-0.127c-0.064,-0.036,-0.134,-0.062,-0.203,-0.09c-0.056,-0.023,-0.106,-0.057,-0.165,-0.074c-0.017,-0.004,-0.035,-0.003,-0.054,-0.007c-0.015,-0.004,-0.028,-0.013,-0.044,-0.017L33.153,108.8582763671875c-0.91,-0.206,-1.813,0.364,-2.018,1.273c-0.206,0.909,0.364,1.812,1.273,2.017L32.407,112.14774322509766l15.253,3.45l-2.032,2.034L27.773,135.48651123046875c-0.658,0.658,-0.659,1.727,0,2.386c0.284,0.284,0.644,0.438,1.015,0.477c0.489,0.052,0.998,-0.101,1.373,-0.477l18.935,-18.936l0.952,-0.952L53.498,133.2379150390625c0.205,0.91,1.108,1.479,2.018,1.273c0.322,-0.074,0.602,-0.234,0.82,-0.452c0.395,-0.395,0.586,-0.981,0.453,-1.568l-0.001,0.001l-4.125,-18.238c-0.003,-0.016,-0.012,-0.028,-0.017,-0.044c-0.004,-0.018,-0.001,-0.035,-0.007,-0.054c-0.018,-0.06,-0.051,-0.112,-0.075,-0.17c-0.028,-0.066,-0.052,-0.134,-0.087,-0.197C52.439,113.725,52.39,113.668,52.344,113.60720825195312Z"></path><path d="M52.038,106.89675903320312c0.057,-0.045,0.115,-0.086,0.166,-0.136c0.054,-0.054,0.098,-0.116,0.144,-0.176c0.045,-0.057,0.091,-0.112,0.127,-0.176c0.036,-0.064,0.062,-0.134,0.09,-0.203c0.023,-0.056,0.057,-0.106,0.074,-0.165c0.004,-0.017,0.003,-0.035,0.007,-0.054c0.004,-0.015,0.013,-0.028,0.017,-0.044L56.787,87.70587921142578c0.207,-0.909,-0.364,-1.812,-1.273,-2.018c-0.909,-0.206,-1.812,0.364,-2.017,1.273L53.498,86.96058654785156l-3.45,15.253l-2.034,-2.032L30.159,82.32621765136719c-0.659,-0.658,-1.727,-0.659,-2.386,0c-0.284,0.284,-0.438,0.644,-0.477,1.015c-0.052,0.489,0.101,0.998,0.477,1.373l18.936,18.935l0.952,0.952L32.407,108.0507583618164c-0.91,0.206,-1.479,1.109,-1.273,2.019c0.074,0.322,0.234,0.602,0.452,0.82c0.395,0.395,0.981,0.586,1.568,0.453l-0.001,-0.001l18.238,-4.125c0.016,-0.003,0.028,-0.012,0.044,-0.017c0.018,-0.004,0.035,-0.001,0.054,-0.007c0.06,-0.018,0.112,-0.051,0.17,-0.075c0.066,-0.028,0.134,-0.052,0.197,-0.087C51.92,106.992,51.977,106.943,52.038,106.89675903320312Z"></path><path d="M58.748,106.59162902832031c0.045,0.057,0.086,0.115,0.137,0.166c0.054,0.054,0.116,0.098,0.176,0.144c0.057,0.045,0.112,0.091,0.176,0.127c0.064,0.036,0.134,0.062,0.203,0.09c0.056,0.023,0.106,0.057,0.165,0.074c0.017,0.004,0.035,0.003,0.054,0.007c0.015,0.004,0.028,0.013,0.044,0.017L77.939,111.34056091308594c0.909,0.206,1.812,-0.364,2.018,-1.273c0.206,-0.909,-0.364,-1.812,-1.273,-2.017L78.684,108.05109405517578l-15.253,-3.45l2.032,-2.034L83.319,84.71232604980469c0.658,-0.658,0.659,-1.727,0,-2.386c-0.284,-0.284,-0.644,-0.438,-1.015,-0.477c-0.489,-0.052,-0.998,0.101,-1.373,0.477l-18.935,18.936l-0.952,0.952L57.594,86.96092987060547c-0.206,-0.91,-1.109,-1.479,-2.019,-1.273c-0.322,0.074,-0.602,0.234,-0.82,0.452c-0.395,0.395,-0.586,0.981,-0.453,1.568l0.001,-0.001l4.125,18.238c0.003,0.016,0.012,0.028,0.017,0.044c0.004,0.018,0.001,0.035,0.007,0.054c0.018,0.06,0.051,0.112,0.075,0.17c0.028,0.066,0.052,0.134,0.087,0.197C58.653,106.473,58.702,106.53,58.748,106.59162902832031Z"></path><path d="M59.054,113.30207824707031c-0.058,0.045,-0.116,0.086,-0.166,0.136c-0.054,0.054,-0.098,0.116,-0.144,0.176c-0.045,0.057,-0.091,0.112,-0.127,0.176c-0.036,0.064,-0.062,0.134,-0.09,0.203c-0.023,0.056,-0.057,0.106,-0.074,0.165c-0.004,0.017,-0.003,0.035,-0.007,0.054c-0.004,0.015,-0.013,0.028,-0.017,0.044L54.305,132.4929656982422c-0.207,0.909,0.364,1.812,1.273,2.018c0.909,0.206,1.812,-0.364,2.017,-1.273L57.594,133.23825073242188l3.45,-15.253l2.034,2.032L80.933,137.8726348876953c0.658,0.658,1.727,0.659,2.386,0c0.284,-0.284,0.438,-0.644,0.477,-1.015c0.052,-0.489,-0.101,-0.998,-0.477,-1.373l-18.936,-18.935l-0.952,-0.952L78.684,112.14807891845703c0.91,-0.206,1.48,-1.109,1.274,-2.019c-0.074,-0.322,-0.234,-0.602,-0.452,-0.82c-0.395,-0.395,-0.981,-0.586,-1.568,-0.453l0.001,0.001l-18.238,4.125c-0.016,0.003,-0.028,0.012,-0.044,0.017c-0.018,0.004,-0.035,0.001,-0.054,0.007c-0.06,0.018,-0.112,0.051,-0.17,0.075c-0.066,0.028,-0.134,0.052,-0.197,0.087C59.172,113.206,59.115,113.255,59.054,113.30207824707031Z"></path></g></g></symbol></defs><rect width="100%" height="100%" id="Pattern1766RctLayer1" fill="url(#Pattern1766Layer1)"></rect><rect width="100%" height="100%" id="Pattern1766RctLayer2" fill="url(#Pattern1766Layer2)"></rect></svg>